<?xml version="1.0" encoding="UTF-8"?>
<svg width="51px" height="51px" viewBox="0 0 51 51" version="1.1" xmlns="http://www.w3.org/2000/svg" xmlns:xlink="http://www.w3.org/1999/xlink">
    <title>anli_icon_right</title>
    <defs>
        <linearGradient x1="100%" y1="50%" x2="0%" y2="50%" id="linearGradient-1">
            <stop stop-color="#F8B297" offset="0%"></stop>
            <stop stop-color="#F9B499" stop-opacity="0" offset="100%"></stop>
        </linearGradient>
    </defs>
    <g id="定稿" stroke="none" stroke-width="1" fill="none" fill-rule="evenodd">
        <g id="MPX-2.5d-1280" transform="translate(-1144.000000, -5024.000000)" fill-rule="nonzero">
            <g id="成功案例" transform="translate(78.000000, 4364.000000)">
                <g id="编组-13" transform="translate(8.000000, 613.000000)">
                    <g id="anli_icon_right" transform="translate(1058.000000, 46.997065)">
                        <circle id="椭圆形备份-12" fill="url(#linearGradient-1)" cx="25.2152642" cy="25.2152642" r="25.2152642"></circle>
                        <g id="左备份" transform="translate(25.500000, 26.002935) scale(-1, 1) translate(-25.500000, -26.002935) translate(15.000000, 17.002935)">
                            <rect id="矩形" fill="#000000" opacity="0" x="0" y="0" width="18" height="18"></rect>
                            <path d="M8.91337729,18 C8.51726364,17.9990252 8.13772768,17.8401682 7.8581184,17.5583152 L0.813288182,10.491358 C0.219729675,10.0790576 -0.0875474996,9.36263739 0.0218440128,8.64609697 C0.0520409981,8.52598819 0.0980438531,8.41045959 0.158636834,8.30256433 C0.297950736,8.06177135 0.472522521,7.84339439 0.67649536,7.65475992 L7.672471,0.627063629 C7.74766322,0.526789053 7.83646375,0.437585893 7.93628572,0.362052742 C8.38263049,-0.0207911592 9.00983752,-0.107996427 9.54291953,0.138670469 C10.0760015,0.385337364 10.4176589,0.920854087 10.4180983,1.51043328 L10.4180983,2.84530296 C10.4179199,3.56034396 10.9864531,4.14453385 11.6980883,4.1605422 L19.2314643,4.1605422 C20.1936702,4.14960713 20.9839342,4.92152485 21,5.88802064 L21,12.0617929 C21,12.5277582 20.8157315,12.9746387 20.4877316,13.3041259 C20.1597316,13.633613 19.7148681,13.818717 19.2510061,13.818717 L17.990558,13.818717 C17.5858776,13.8186542 17.2578525,13.4890909 17.2578525,13.0825756 C17.2578525,12.6760604 17.5858776,12.3464971 17.990558,12.3464343 L19.2510061,12.3464343 C19.3261569,12.3464343 19.3982298,12.3164454 19.4513694,12.2630648 C19.5045091,12.2096841 19.5343627,12.1372845 19.5343626,12.0617929 L19.5343626,5.88802064 C19.5290952,5.73466345 19.4037619,5.61310327 19.2510061,5.61319452 L11.6980883,5.61319452 C10.1845735,5.59717041 8.96303604,4.36572752 8.95246096,2.84530296 L8.95246096,1.51043328 C8.89702622,1.5617346 8.83449645,1.6047121 8.76681356,1.63803111 L1.71221243,8.69517306 C1.61543876,8.78495856 1.52712557,8.88352924 1.44839771,8.98962962 C1.54203343,9.15145709 1.66459355,9.29453765 1.80992158,9.411684 C1.87831799,9.48039053 1.95648531,9.53928183 2.01511082,9.60798836 L8.8547518,16.4786412 L8.91337729,15.1143258 C8.93479318,13.5863438 10.1768623,12.3605325 11.6980883,12.3660647 L15.1667633,12.3660647 C15.5714879,12.3660647 15.899582,12.6956464 15.899582,13.1022061 C15.899582,13.5087657 15.5714879,13.8383475 15.1667633,13.8383475 L11.6980883,13.8383475 C10.978799,13.8437398 10.3985364,14.431016 10.3985565,15.1535867 L10.3985565,16.4884564 C10.3949666,17.0978682 10.029699,17.6463226 9.47031948,17.8822174 C9.29396694,17.9571785 9.10484754,17.9971736 8.91337729,18 L8.91337729,18 Z" id="路径" fill="#FFFFFF"></path>
                        </g>
                    </g>
                </g>
            </g>
        </g>
    </g>
</svg>