<?xml version="1.0" encoding="UTF-8"?>
<svg width="50px" height="50px" viewBox="0 0 50 50" version="1.1" xmlns="http://www.w3.org/2000/svg" xmlns:xlink="http://www.w3.org/1999/xlink">
    <title>kaifa_icon_7</title>
    <g id="定稿" stroke="none" stroke-width="1" fill="none" fill-rule="evenodd">
        <g id="MPX-2.5d-1920" transform="translate(-535.000000, -4065.000000)">
            <g id="开发生态" transform="translate(0.000000, 3592.329189)">
                <g id="编组-4" transform="translate(520.000000, 257.670811)">
                    <g id="编组-5备份-5" transform="translate(0.000000, 200.000000)">
                        <g id="kaifa_icon_7" transform="translate(15.000000, 15.000000)">
                            <rect id="矩形备份-35" fill="#CAEFE0" opacity="0.3" x="0" y="0" width="50" height="50" rx="4"></rect>
                            <rect id="矩形" fill="#CAEFE0" fill-rule="nonzero" x="22" y="18" width="21" height="22" rx="2"></rect>
                            <path d="M23.6729,8 C25.0449,8.002 26.3309,8.669 27.1226,9.789 C27.9144,10.91 28.1136,12.344 27.6571,13.638 L33.5322,13.638 C34.2789,13.638 34.995,13.935 35.523,14.463 C36.051,14.991 36.3476,15.707 36.3476,16.454 L36.3476,22.331 C38.1018,21.705 40.059,22.3 41.1682,23.796 C42.2773,25.293 42.2773,27.338 41.1682,28.835 C40.059,30.331 38.1018,30.926 36.3476,30.3 L36.3476,36.177 C36.3495,36.925 36.0538,37.643 35.5256,38.173 C34.9974,38.702 34.2802,39 33.5322,39 L27.6662,39 C28.2883,37.246 27.6916,35.292 26.1962,34.185 C24.7008,33.078 22.6577,33.078 21.1623,34.185 C19.6669,35.292 19.0703,37.246 19.6923,39 L13.81541,39 C13.06745,39 12.35024,38.702 11.82204,38.173 C11.29385,37.643 10.99808,36.925 11.0000006,36.177 L11.0000006,30.327 C12.74819,30.939 14.69107,30.34 15.791,28.85 C16.8909,27.36 16.8909,25.326 15.791,23.836 C14.69107,22.346 12.74819,21.746 11.0000006,22.358 L11.0000006,16.481 C11.0000006,14.926 12.26051,13.666 13.81541,13.666 L19.6905,13.666 C19.2339,12.372 19.4341,10.937 20.2274,9.817 C21.0206,8.697 22.3081,8.033 23.6802,8.035 L23.6747,8 L23.6729,8 Z" id="路径" stroke="#3A495D" stroke-width="2" stroke-linejoin="round"></path>
                        </g>
                    </g>
                </g>
            </g>
        </g>
    </g>
</svg>