<?xml version="1.0" encoding="UTF-8"?>
<svg width="50px" height="50px" viewBox="0 0 50 50" version="1.1" xmlns="http://www.w3.org/2000/svg" xmlns:xlink="http://www.w3.org/1999/xlink">
    <title>kaifa_icon_9</title>
    <g id="定稿" stroke="none" stroke-width="1" fill="none" fill-rule="evenodd">
        <g id="MPX-2.5d-1920" transform="translate(-1136.000000, -4065.000000)">
            <g id="开发生态" transform="translate(0.000000, 3592.329189)">
                <g id="编组-4" transform="translate(520.000000, 257.670811)">
                    <g id="编组-12备份-2" transform="translate(600.000000, 200.000000)">
                        <g id="kaifa_icon_9" transform="translate(16.000000, 15.000000)">
                            <rect id="矩形备份-37" fill="#CAEFE0" opacity="0.3" x="0" y="0" width="50" height="50" rx="4"></rect>
                            <g id="编组" transform="translate(8.000000, 8.000000)">
                                <path d="M22.40893,22.0508275 C22.86593,21.8775275 23.37053,21.8775275 23.82753,22.0508275 L32.68823,25.4118275 C34.40913,26.0646275 34.40913,28.4990275 32.68823,29.1518275 L23.82753,32.5128275 C23.37053,32.6861275 22.86593,32.6861275 22.40893,32.5128275 L13.54823,29.1518275 C11.82733,28.4990275 11.82733,26.0646275 13.54823,25.4118275 L22.40893,22.0508275 Z" id="路径" fill="#CAEFE0" fill-rule="nonzero"></path>
                                <path d="M15.20153,0.0909375 C15.46603,-0.0303125 15.77033,-0.0303125 16.03483,0.0909375 L30.63613,6.7831275 C30.68453,6.8042275 30.73153,6.8293275 30.77673,6.8583275 C31.06333,7.0422275 31.23673,7.3594275 31.23673,7.6999275 L31.23673,25.3636275 C31.23673,25.7546275 31.00873,26.1097275 30.65333,26.2726275 L16.08133,32.9515275 C15.93553,33.0271275 15.77483,33.0648275 15.61383,33.0636553 C15.45703,33.0629275 15.30093,33.0253275 15.15893,32.9518275 L0.58644,26.2726275 C0.23099,26.1097275 0.0031,25.7546275 0.0031,25.3636275 L0.0031,25.3440275 C0.00105,25.3180275 -1.77635684e-15,25.2917275 -1.77635684e-15,25.2653275 C-1.77635684e-15,25.2389275 0.00105,25.2126275 0.0031,25.1866275 L0.00305,7.7781275 C0.00103,7.7523275 -1.77635684e-15,7.7262275 -1.77635684e-15,7.7000275 C-1.77635684e-15,7.3090275 0.2279,6.9538275 0.58335,6.7909275 L15.20153,0.0909375 Z M15.61913,13.2995275 L3.40152,7.6993275 L15.61823,2.1000275 L27.83633,7.7000275 L15.61913,13.2995275 Z M2.00306,9.2597275 L2.00306,23.7055275 L14.61963,17.9229275 L14.61983,15.0424275 L2.00306,9.2597275 Z M14.61943,20.1231275 L3.40007,25.2653275 L14.61863,30.4071275 L14.61943,20.1231275 Z M16.62113,30.4056275 L16.62033,20.1247275 L27.83633,25.2653275 L16.62113,30.4056275 Z M29.23673,23.7071275 L16.62013,17.9245275 L16.61993,15.0416275 L29.23673,9.2584275 L29.23673,23.7071275 Z" id="形状" fill="#3A495D"></path>
                            </g>
                        </g>
                    </g>
                </g>
            </g>
        </g>
    </g>
</svg>