<?xml version="1.0" encoding="UTF-8"?>
<svg width="50px" height="51px" viewBox="0 0 50 51" version="1.1" xmlns="http://www.w3.org/2000/svg" xmlns:xlink="http://www.w3.org/1999/xlink">
    <title>kaifa_icon_1</title>
    <g id="定稿" stroke="none" stroke-width="1" fill="none" fill-rule="evenodd">
        <g id="MPX-2.5d-1280" transform="translate(-215.000000, -3864.000000)">
            <g id="开发生态" transform="translate(-320.000000, 3592.000000)">
                <g id="编组-4" transform="translate(520.000000, 257.670811)">
                    <g id="kaifa_icon_1" transform="translate(15.000000, 15.000000)">
                        <circle id="椭圆形" fill="#CAEFE0" fill-rule="nonzero" cx="27.5" cy="11.5" r="3.5"></circle>
                        <rect id="矩形" fill="#CAEFE0" opacity="0.3" x="0" y="0" width="50" height="50" rx="4"></rect>
                        <circle id="椭圆形" fill="#CAEFE0" fill-rule="nonzero" cx="12.5" cy="32.5" r="3.5"></circle>
                        <circle id="椭圆形" fill="#CAEFE0" fill-rule="nonzero" cx="41.5" cy="32.5" r="3.5"></circle>
                        <path d="M27,10 C27,11.10457 26.1046,12 25,12 C23.8954,12 23,11.10457 23,10 C23,8.89543 23.8954,8 25,8 C26.1046,8 27,8.89543 27,10 Z M29,10 C29,12.20914 27.2091,14 25,14 C22.7909,14 21,12.20914 21,10 C21,7.79086 22.7909,6 25,6 C27.2091,6 29,7.79086 29,10 Z M18.6509,11.40576 C19.1512,11.1717 19.3669,10.57643 19.1329,10.0762 C18.8988,9.57596 18.3036,9.36019 17.8033,9.59424 C16.1418,10.37164 14.62743,11.40951 13.31238,12.65493 C10.04204,15.7521 8,20.1384 8,25 C8,25.5523 8.44772,26 9,26 C9.55228,26 10,25.5523 10,25 C10,20.7102 11.7995,16.8423 14.68762,14.1071 C15.849,13.00715 17.1858,12.09131 18.6509,11.40576 Z M32.1967,9.59424 C31.6964,9.36019 31.1012,9.57596 30.8671,10.0762 C30.6331,10.57643 30.8488,11.1717 31.3491,11.40576 C33.0157,12.18558 34.5161,13.26338 35.7813,14.571 C38.3939,17.2713 40,20.9471 40,25 C40,25.5523 40.4477,26 41,26 C41.5523,26 42,25.5523 42,25 C42,20.4075 40.1776,16.2386 37.2187,13.18034 C35.7862,11.69981 34.0866,10.47852 32.1967,9.59424 Z M37.2187,36.8197 C37.6027,36.4227 37.5923,35.7897 37.1953,35.4056 C36.7984,35.0216 36.1653,35.0321 35.7813,35.429 C33.053,38.2488 29.2319,40 24.9999981,40 C21.005,40 17.3766,38.4396 14.68762,35.8929 C14.28662,35.5132 13.65369,35.5304 13.27393,35.9314 C12.89417,36.3324 12.91138,36.9653 13.31238,37.3451 C16.358,40.2294 20.4733,42 24.9999981,42 C29.7958,42 34.1292,40.0128 37.2187,36.8197 Z M10,33 C11.10457,33 12,32.1046 12,31 C12,29.8954 11.10457,29 10,29 C8.89543,29 8,29.8954 8,31 C8,32.1046 8.89543,33 10,33 Z M10,35 C12.20914,35 14,33.2091 14,31 C14,28.7909 12.20914,27 10,27 C7.79086,27 6,28.7909 6,31 C6,33.2091 7.79086,35 10,35 Z M41,31 C41,32.1046 40.1046,33 39,33 C37.8954,33 37,32.1046 37,31 C37,29.8954 37.8954,29 39,29 C40.1046,29 41,29.8954 41,31 Z M43,31 C43,33.2091 41.2091,35 39,35 C36.7909,35 35,33.2091 35,31 C35,28.7909 36.7909,27 39,27 C41.2091,27 43,28.7909 43,31 Z" id="形状" fill="#3A495D"></path>
                    </g>
                </g>
            </g>
        </g>
    </g>
</svg>