<?xml version="1.0" encoding="UTF-8"?>
<svg width="50px" height="50px" viewBox="0 0 50 50" version="1.1" xmlns="http://www.w3.org/2000/svg" xmlns:xlink="http://www.w3.org/1999/xlink">
    <title>kaifa_icon_2</title>
    <g id="定稿" stroke="none" stroke-width="1" fill="none" fill-rule="evenodd">
        <g id="MPX-2.5d-1920" transform="translate(-836.000000, -3865.000000)">
            <g id="开发生态" transform="translate(0.000000, 3592.329189)">
                <g id="编组-4" transform="translate(520.000000, 257.670811)">
                    <g id="编组-5备份" transform="translate(300.000000, 0.000000)">
                        <g id="kaifa_icon_2" transform="translate(16.000000, 15.000000)">
                            <rect id="矩形备份-8" fill="#CAEFE0" opacity="0.3" x="0" y="0" width="50" height="50" rx="4"></rect>
                            <circle id="椭圆形" fill="#CAEFE0" fill-rule="nonzero" cx="29" cy="26" r="5"></circle>
                            <path d="M29.456,9.27112 C29.08,9.27112 28.736,9.48169 28.565,9.81626 C27.902,11.11458 26.554,11.99996 25,11.99996 C23.453,11.99996 22.109,11.12141 21.443,9.83122 C21.259,9.47524 20.881,9.26325 20.481,9.2925 C18.03,9.47196 15.793,10.77077 14.423,12.81349 C14.204,13.13954 14.197,13.56342 14.404,13.89719 C14.782,14.50748 15,15.2267 15,16 C15,18.2091 13.209,20 11,20 C10.955,20 10.91,19.9992 10.865,19.9977 C10.496,19.9856 10.151,20.1776 9.966,20.4972 L9.885,20.6371 C8.484,23.0642 8.457,26.0434 9.803,28.492 C9.99,28.8314 10.356,29.0325 10.743,29.0081 C10.828,29.0027 10.913,29 11,29 C13.209,29 15,30.7908 15,33 C15,33.8202 14.754,34.5801 14.332,35.2135 C14.113,35.5432 14.109,35.9715 14.322,36.3055 C15.59,38.2941 17.664,39.6112 19.977,39.9288 C20.495,39.9999 20.98,39.6603 21.09,39.1495 C21.48,37.3487 23.084,36 25,36 C26.933,36 28.547,37.3717 28.919,39.1954 C29.018,39.6783 29.453,40.0174 29.946,39.9944 C32.659,39.8678 35.133,38.37 36.5,36.0032 L36.518,35.9712 C36.696,35.6636 36.697,35.2849 36.521,34.9762 C36.19,34.3942 36,33.7207 36,33 C36,30.8005 37.775,29.0156 39.971,29.0001 C40.334,28.9975 40.667,28.7987 40.841,28.4806 C42.181,26.0341 42.152,23.0604 40.753,20.6371 L40.671,20.4962 C40.5,20.1987 40.187,20.0101 39.844,19.997 C37.707,19.9152 36,18.1567 36,16 C36,15.3252 36.166,14.69231 36.459,14.137 C36.622,13.82781 36.612,13.4559 36.432,13.15611 C34.989,10.74873 32.385,9.27112 29.572,9.27112 L29.456,9.27112 Z M25,13.99996 C27.101,13.99996 28.949,12.91978 30.02,11.28781 C31.785,11.41964 33.401,12.3255 34.434,13.75567 C34.154,14.44981 34,15.2078 34,16 C34,19.0379 36.257,21.5482 39.187,21.9453 C39.989,23.5422 40.034,25.41 39.324,27.0377 C36.328,27.3739 34,29.915 34,33 C34,33.8582 34.181,34.6761 34.507,35.4161 C33.593,36.7371 32.192,37.6307 30.626,37.91 C29.777,35.6268 27.579,34 25,34 C22.472,34 20.31,35.563 19.426,37.7749 C18.217,37.4311 17.138,36.7129 16.352,35.7148 C16.766,34.899 17,33.9758 17,33 C17,29.7873 14.475,27.1644 11.301,27.0074 C10.61,25.4003 10.653,23.563 11.432,21.9847 C14.544,21.7635 17,19.1686 17,16 C17,15.0918 16.798,14.22898 16.435,13.45591 C17.345,12.35164 18.621,11.60816 20.029,11.36124 C21.107,12.95207 22.931,13.99996 25,13.99996 Z M28,25 C28,26.6569 26.657,28 25,28 C23.343,28 22,26.6569 22,25 C22,23.3431 23.343,22 25,22 C26.657,22 28,23.3431 28,25 Z M30,25 C30,27.7614 27.761,30 25,30 C22.239,30 20,27.7614 20,25 C20,22.2386 22.239,20 25,20 C27.761,20 30,22.2386 30,25 Z" id="形状" fill="#3A495D"></path>
                        </g>
                    </g>
                </g>
            </g>
        </g>
    </g>
</svg>