<?xml version="1.0" encoding="UTF-8"?>
<svg width="50px" height="50px" viewBox="0 0 50 50" version="1.1" xmlns="http://www.w3.org/2000/svg" xmlns:xlink="http://www.w3.org/1999/xlink">
    <title>kaifa_icon_8</title>
    <g id="定稿" stroke="none" stroke-width="1" fill="none" fill-rule="evenodd">
        <g id="MPX-2.5d-1920" transform="translate(-836.000000, -4065.000000)">
            <g id="开发生态" transform="translate(0.000000, 3592.329189)">
                <g id="编组-4" transform="translate(520.000000, 257.670811)">
                    <g id="编组-5备份-6" transform="translate(300.000000, 200.000000)">
                        <g id="kaifa_icon_8" transform="translate(16.000000, 15.000000)">
                            <rect id="矩形备份-36" fill="#CAEFE0" opacity="0.3" x="0" y="0" width="50" height="50" rx="4"></rect>
                            <circle id="椭圆形" fill="#CAEFE0" fill-rule="nonzero" cx="31" cy="29" r="4"></circle>
                            <path d="M14,12 L36,12 C36.552,12 37,12.448 37,13 L37,38 C37,38.552 36.552,39 36,39 L14,39 C13.448,39 13,38.552 13,38 L13,13 C13,12.448 13.448,12 14,12 Z M11,13 C11,11.343 12.343,10 14,10 L36,10 C37.657,10 39,11.343 39,13 L39,38 C39,39.657 37.657,41 36,41 L14,41 C12.343,41 11,39.657 11,38 L11,13 Z M16,17 C16,16.448 16.448,16 17,16 L33,16 C33.552,16 34,16.448 34,17 C34,17.552 33.552,18 33,18 L17,18 C16.448,18 16,17.552 16,17 Z M16,23 C16,22.448 16.448,22 17,22 L23,22 C23.552,22 24,22.448 24,23 C24,23.552 23.552,24 23,24 L17,24 C16.448,24 16,23.552 16,23 Z M34.741,33.327 L32.31,30.896 C32.747,30.202 33,29.381 33,28.5 C33,26.015 30.985,24 28.5,24 C26.015,24 24,26.015 24,28.5 C24,30.985 26.015,33 28.5,33 C29.381,33 30.202,32.747 30.896,32.31 L33.327,34.741 C33.717,35.132 34.35,35.132 34.741,34.741 C35.132,34.351 35.132,33.717 34.741,33.327 Z M28.5,31 C29.881,31 31,29.881 31,28.5 C31,27.119 29.881,26 28.5,26 C27.119,26 26,27.119 26,28.5 C26,29.881 27.119,31 28.5,31 Z" id="形状" fill="#3A495D"></path>
                        </g>
                    </g>
                </g>
            </g>
        </g>
    </g>
</svg>