<?xml version="1.0" encoding="UTF-8"?>
<svg width="50px" height="50px" viewBox="0 0 50 50" version="1.1" xmlns="http://www.w3.org/2000/svg" xmlns:xlink="http://www.w3.org/1999/xlink">
    <title>kaifa_icon_4</title>
    <g id="定稿" stroke="none" stroke-width="1" fill="none" fill-rule="evenodd">
        <g id="MPX-2.5d-1920" transform="translate(-535.000000, -3965.000000)">
            <g id="开发生态" transform="translate(0.000000, 3592.329189)">
                <g id="编组-4" transform="translate(520.000000, 257.670811)">
                    <g id="编组-5备份-3" transform="translate(0.000000, 100.000000)">
                        <g id="kaifa_icon_4" transform="translate(15.000000, 15.000000)">
                            <rect id="矩形备份-32" fill="#CAEFE0" opacity="0.3" x="0" y="0" width="50" height="50" rx="4"></rect>
                            <circle id="椭圆形" fill="#CAEFE0" fill-rule="nonzero" cx="31.5" cy="29.5" r="13.5"></circle>
                            <path d="M41,25 C41,33.837 33.8366,41 25,41 M41,25 C41,16.163 33.8366,9 25,9 M41,25 C41,25 33.8743,25 31.1176,25 M25,41 C16.1634,41 9,33.837 9,25 M25,41 C25,41 31.1176,41 31.1176,25 M25,41 C25,41 18.4118,41 18.4118,25 M9,25 C9,16.163 16.1634,9 25,9 M9,25 C9,25 15.4713,25 18.4118,25 M25,9 C25,9 31.1176,9 31.1176,25 M25,9 C25,9 18.4118,9 18.4118,25 M18.4118,25 C25.2115,25 24.3179,25 31.1176,25" id="形状" stroke="#3A495D" stroke-width="2" stroke-linecap="round" stroke-linejoin="round"></path>
                        </g>
                    </g>
                </g>
            </g>
        </g>
    </g>
</svg>