<?xml version="1.0" encoding="UTF-8"?>
<svg width="50px" height="50px" viewBox="0 0 50 50" version="1.1" xmlns="http://www.w3.org/2000/svg" xmlns:xlink="http://www.w3.org/1999/xlink">
    <title>kaifa_icon_6</title>
    <g id="定稿" stroke="none" stroke-width="1" fill="none" fill-rule="evenodd">
        <g id="MPX-2.5d-1920" transform="translate(-1136.000000, -3965.000000)">
            <g id="开发生态" transform="translate(0.000000, 3592.329189)">
                <g id="编组-4" transform="translate(520.000000, 257.670811)">
                    <g id="编组-12备份" transform="translate(600.000000, 100.000000)">
                        <g id="kaifa_icon_6" transform="translate(16.000000, 15.000000)">
                            <rect id="矩形备份-34" fill="#CAEFE0" opacity="0.3" x="0" y="0" width="50" height="50" rx="4"></rect>
                            <rect id="矩形" fill="#CAEFE0" fill-rule="nonzero" x="16" y="20" width="9" height="16" rx="2"></rect>
                            <rect id="矩形" fill="#CAEFE0" fill-rule="nonzero" x="34" y="20" width="9" height="16" rx="2"></rect>
                            <path d="M24,16 C24,14.343 22.657,13 21,13 L12,13 C10.343,13 9,14.343 9,16 L9,32 C9,33.657 10.343,35 12,35 L21,35 C22.657,35 24,33.657 24,32 L24,27 C24,26.448 23.552,26 23,26 C22.448,26 22,26.448 22,27 L22,32 C22,32.552 21.552,33 21,33 L12,33 C11.448,33 11,32.552 11,32 L11,16 C11,15.448 11.448,15 12,15 L21,15 C21.552,15 22,15.448 22,16 L22,21 C22,21.552 22.448,22 23,22 C23.552,22 24,21.552 24,21 L24,16 Z M26,16 C26,14.343 27.343,13 29,13 L38,13 C39.657,13 41,14.343 41,16 L41,32 C41,33.657 39.657,35 38,35 L29,35 C27.343,35 26,33.657 26,32 L26,27 C26,26.448 26.448,26 27,26 C27.552,26 28,26.448 28,27 L28,32 C28,32.552 28.448,33 29,33 L38,33 C38.552,33 39,32.552 39,32 L39,16 C39,15.448 38.552,15 38,15 L29,15 C28.448,15 28,15.448 28,16 L28,21 C28,21.552 27.552,22 27,22 C26.448,22 26,21.552 26,21 L26,16 Z M16.5,23 C15.948,23 15.5,23.448 15.5,24 C15.5,24.552 15.948,25 16.5,25 L33.5,25 C34.052,25 34.5,24.552 34.5,24 C34.5,23.448 34.052,23 33.5,23 L16.5,23 Z" id="形状" fill="#3A495D"></path>
                        </g>
                    </g>
                </g>
            </g>
        </g>
    </g>
</svg>