<?xml version="1.0" encoding="UTF-8"?>
<svg width="50px" height="50px" viewBox="0 0 50 50" version="1.1" xmlns="http://www.w3.org/2000/svg" xmlns:xlink="http://www.w3.org/1999/xlink">
    <title>kaifa_icon_5</title>
    <g id="定稿" stroke="none" stroke-width="1" fill="none" fill-rule="evenodd">
        <g id="MPX-2.5d-1920" transform="translate(-836.000000, -3965.000000)">
            <g id="开发生态" transform="translate(0.000000, 3592.329189)">
                <g id="编组-4" transform="translate(520.000000, 257.670811)">
                    <g id="编组-5备份-4" transform="translate(300.000000, 100.000000)">
                        <g id="kaifa_icon_5" transform="translate(16.000000, 15.000000)">
                            <rect id="矩形备份-33" fill="#CAEFE0" opacity="0.3" x="0" y="0" width="50" height="50" rx="4"></rect>
                            <path d="M27.465,31.361 L30.497,31.361 C34.363,31.361 37.497,28.227 37.497,24.361 L37.497,20.716 L20.465,20.716 L20.465,24.361 C20.465,28.227 23.599,31.361 27.465,31.361 Z" id="路径" fill="#CAEFE0" fill-rule="nonzero"></path>
                            <path d="M17.387,16.452 L17.387,16.452 L17.387,10.065 C17.387,9.477 17.864,9 18.452,9 C19.04,9 19.516,9.477 19.516,10.065 L19.516,16.452 L19.516,16.452 L28.032,16.452 L28.032,16.452 L28.032,10.065 C28.032,9.477 28.509,9 29.097,9 C29.685,9 30.161,9.477 30.161,10.065 L30.161,16.452 L30.161,16.452 L35.484,16.452 C36.072,16.452 36.548,16.929 36.548,17.517 C36.548,18.105 36.072,18.581 35.484,18.581 L33.29,18.581 L33.29,23.355 C33.29,28.142 29.554,32.055 24.839,32.339 L24.839,40.936 C24.839,41.524 24.362,42 23.774,42 C23.186,42 22.71,41.524 22.71,40.936 L22.71,32.339 C17.995,32.055 14.258,28.142 14.258,23.355 L14.258,18.581 L12.065,18.581 C11.477,18.581 11,18.105 11,17.517 C11,16.929 11.477,16.452 12.065,16.452 L17.387,16.452 Z M16.258,18.581 L31.29,18.581 L31.29,23.355 C31.29,27.221 28.156,30.355 24.29,30.355 L24.14,30.355 C24.026,30.314 23.903,30.291 23.774,30.291 C23.646,30.291 23.523,30.314 23.409,30.355 L23.258,30.355 C19.392,30.355 16.258,27.221 16.258,23.355 L16.258,18.581 Z M36.152,32.934 C36.352,32.674 36.745,32.674 36.945,32.934 L39.616,36.405 C39.87,36.734 39.635,37.21 39.22,37.21 L37.613,37.21 L37.613,40.936 C37.613,41.524 37.136,42 36.549,42 C35.961,42 35.484,41.524 35.484,40.936 L35.484,37.21 L33.877,37.21 C33.462,37.21 33.228,36.734 33.481,36.405 L36.152,32.934 Z" id="形状" fill="#3A495D"></path>
                        </g>
                    </g>
                </g>
            </g>
        </g>
    </g>
</svg>