<?xml version="1.0" encoding="UTF-8"?>
<svg width="30px" height="30px" viewBox="0 0 30 30" version="1.1" xmlns="http://www.w3.org/2000/svg" xmlns:xlink="http://www.w3.org/1999/xlink">
    <title>nav_icon_search</title>
    <defs>
        <linearGradient x1="64.8279636%" y1="63.7365099%" x2="23.7801281%" y2="38.1392183%" id="linearGradient-1">
            <stop stop-color="#50BE97" offset="0%"></stop>
            <stop stop-color="#31BC7F" offset="100%"></stop>
        </linearGradient>
    </defs>
    <g id="定稿" stroke="none" stroke-width="1" fill="none" fill-rule="evenodd">
        <g id="MPX-2.5d备份" transform="translate(-1527.000000, -33.000000)">
            <g id="Banner" transform="translate(360.000000, 0.000000)">
                <g id="导航栏" transform="translate(0.000000, 30.000000)">
                    <g id="搜索框" transform="translate(900.000000, 0.000000)">
                        <g id="nav_icon_search" transform="translate(267.000000, 3.000000)">
                            <circle id="椭圆形" fill="url(#linearGradient-1)" cx="15" cy="15" r="15"></circle>
                            <path d="M20.8833281,14.6666719 L16.9633281,9.97332812 C16.8523629,9.82559396 16.6689701,9.75109651 16.4864151,9.77959746 C16.30386,9.8080984 16.1519026,9.93495155 16.0912497,10.1094792 C16.0305968,10.2840068 16.071136,10.4777575 16.1966719,10.6133281 L19.4333281,14.5 L8.5,14.5 C8.22385763,14.5 8,14.7238576 8,15 C8,15.2761424 8.22385763,15.5 8.5,15.5 L19.4333281,15.5 L16.1933281,19.3866719 C16.0678443,19.5222526 16.0273442,19.7159771 16.0880033,19.8904729 C16.1486624,20.0649687 16.3005952,20.1917987 16.4831206,20.2203077 C16.6656461,20.2488168 16.8490185,20.1743588 16.96,20.0266719 L20.8833281,15.3333281 C21.0530846,15.1435293 21.0530846,14.8564707 20.8833281,14.6666719 Z" id="路径" stroke="#FFFFFF" fill="#FFFFFF" fill-rule="nonzero"></path>
                        </g>
                    </g>
                </g>
            </g>
        </g>
    </g>
</svg>