<?xml version="1.0" encoding="UTF-8"?>
<svg width="81px" height="81px" viewBox="0 0 81 81" version="1.1" xmlns="http://www.w3.org/2000/svg" xmlns:xlink="http://www.w3.org/1999/xlink">
    <title>texing_icon_kua</title>
    <defs>
        <linearGradient x1="64.8279636%" y1="63.7365099%" x2="23.7801281%" y2="38.1392183%" id="linearGradient-1">
            <stop stop-color="#50BE97" offset="0%"></stop>
            <stop stop-color="#31BC7F" offset="100%"></stop>
        </linearGradient>
    </defs>
    <g id="定稿" stroke="none" stroke-width="1" fill="none" fill-rule="evenodd">
        <g id="MPX-2.5d-1920" transform="translate(-1220.000000, -790.000000)">
            <g id="特性" transform="translate(520.937667, 750.488763)">
                <g id="编组-19" transform="translate(600.000000, 0.000000)">
                    <g id="texing_icon_kua" transform="translate(100.000000, 40.000000)">
                        <circle id="椭圆形" fill="url(#linearGradient-1)" fill-rule="nonzero" cx="40" cy="40" r="40"></circle>
                        <path d="M26.0756364,24.4882424 C25.0046061,24.4882424 24.1362424,25.3566061 24.1362424,26.4276364 L24.1362424,30.4227879 L24.1362424,41.3250909 C24.1362424,42.3961212 25.0046061,43.2644848 26.0756364,43.2644848 L30.0707879,43.2644848 C30.6060606,43.2644848 31.0404848,42.8300606 31.0404848,42.2947879 C31.0404848,41.7590303 30.6060606,41.3250909 30.0707879,41.3250909 L26.0756364,41.3250909 L26.0756364,31.3924848 L43.9951515,31.3924848 L43.9951515,41.3250909 L40,41.3250909 C39.4642424,41.3250909 39.030303,41.7590303 39.030303,42.2947879 C39.030303,42.8300606 39.4642424,43.2644848 40,43.2644848 L43.9951515,43.2644848 C45.0661818,43.2644848 45.9345455,42.3961212 45.9345455,41.3250909 L45.9345455,30.4227879 L45.9345455,26.4276364 C45.9345455,25.3566061 45.0661818,24.4882424 43.9951515,24.4882424 L26.0756364,24.4882424 Z M43.9951515,29.4530909 L26.0756364,29.4530909 L26.0756364,26.4276364 L43.9951515,26.4276364 L43.9951515,29.4530909 Z M53.9243636,54.0572121 C54.9953939,54.0572121 55.8637576,53.1888485 55.8637576,52.1178182 L55.8637576,48.1226667 L55.8637576,37.2203636 C55.8637576,36.1493333 54.9953939,35.2809697 53.9243636,35.2809697 L49.9292121,35.2809697 C49.3939394,35.2809697 48.9595152,35.7153939 48.9595152,36.2506667 C48.9595152,36.7864242 49.3939394,37.2203636 49.9292121,37.2203636 L53.9243636,37.2203636 L53.9243636,47.1529697 L36.0048485,47.1529697 L36.0048485,37.2203636 L40,37.2203636 C40.5357576,37.2203636 40.969697,36.7864242 40.969697,36.2506667 C40.969697,35.7153939 40.5357576,35.2809697 40,35.2809697 L36.0048485,35.2809697 C34.9338182,35.2809697 34.0654545,36.1493333 34.0654545,37.2203636 L34.0654545,48.1226667 L34.0654545,52.1178182 C34.0654545,53.1888485 34.9338182,54.0572121 36.0048485,54.0572121 L53.9243636,54.0572121 Z M36.0048485,49.0923636 L53.9243636,49.0923636 L53.9243636,52.1178182 L36.0048485,52.1178182 L36.0048485,49.0923636 Z" id="形状" fill="#FFFFFF"></path>
                    </g>
                </g>
            </g>
        </g>
    </g>
</svg>