<?xml version="1.0" encoding="UTF-8"?>
<svg width="81px" height="81px" viewBox="0 0 81 81" version="1.1" xmlns="http://www.w3.org/2000/svg" xmlns:xlink="http://www.w3.org/1999/xlink">
    <title>texing_icon_gao</title>
    <defs>
        <linearGradient x1="64.8279636%" y1="63.7365099%" x2="23.7801281%" y2="38.1392183%" id="linearGradient-1">
            <stop stop-color="#50BE97" offset="0%"></stop>
            <stop stop-color="#31BC7F" offset="100%"></stop>
        </linearGradient>
    </defs>
    <g id="定稿" stroke="none" stroke-width="1" fill="none" fill-rule="evenodd">
        <g id="MPX-2.5d-1920" transform="translate(-620.000000, -790.000000)">
            <g id="特性" transform="translate(520.937667, 750.488763)">
                <g id="texing_icon_gao" transform="translate(100.000000, 40.000000)">
                    <circle id="椭圆形" fill="url(#linearGradient-1)" fill-rule="nonzero" cx="40" cy="40" r="40"></circle>
                    <path d="M29.3813333,29.9494788 C31.8569697,27.5777455 35.1413333,26.0271515 38.7878788,25.7438545 L38.7878788,30.0606061 C38.7878788,30.5961697 39.2218182,31.030303 39.7575758,31.030303 C40.2933333,31.030303 40.7272727,30.5961697 40.7272727,30.0606061 L40.7272727,25.7137939 C48.832,26.0897455 55.2727273,32.7161212 55.2727273,40.8174061 C55.2727273,41.2773333 55.2518788,41.7324121 55.2116364,42.1818182 L50.9090909,42.1818182 C50.3733333,42.1818182 49.9393939,42.6159515 49.9393939,43.1515152 C49.9393939,43.6870788 50.3733333,44.1212121 50.9090909,44.1212121 L54.9071515,44.1212121 C54.3772121,46.4761212 53.2926061,48.624 51.7944242,50.4242424 L28.2055758,50.4242424 C26.7073939,48.624 25.6227879,46.4761212 25.0928485,44.1212121 L29.0909091,44.1212121 C29.6266667,44.1212121 30.0606061,43.6870788 30.0606061,43.1515152 C30.0606061,42.6159515 29.6266667,42.1818182 29.0909091,42.1818182 L24.7883636,42.1818182 C24.7481212,41.7324121 24.7272727,41.2773333 24.7272727,40.8174061 C24.7272727,37.2489697 25.9767273,33.9666424 28.0678788,31.3786667 L30.9226667,34.233503 C31.3013333,34.6121697 31.9156364,34.6121697 32.294303,34.233503 C32.6729697,33.8548364 32.6729697,33.2408242 32.294303,32.8621576 L29.3813333,29.9494788 Z M40,23.7575758 C30.5027879,23.7575758 22.7878788,31.3869576 22.7878788,40.8174061 C22.7878788,45.1122909 24.390303,49.0375758 27.0317576,52.0349091 C27.216,52.2438788 27.4807273,52.3636364 27.7595152,52.3636364 L52.2404848,52.3636364 C52.5192727,52.3636364 52.784,52.2438788 52.9682424,52.0349091 C55.609697,49.0375758 57.2121212,45.1122909 57.2121212,40.8174061 C57.2121212,31.3869576 49.4972121,23.7575758 40,23.7575758 Z M38.2598788,40.8337455 C38.2652121,40.8290424 38.2899394,40.8050909 38.3442424,40.7602909 C38.4087273,40.7068121 38.4964848,40.6386424 38.6099394,40.5553455 C38.8387879,40.3881212 39.1369697,40.1858424 39.4981818,39.9535515 C40.2196364,39.4896 41.1316364,38.9442424 42.1134545,38.377503 C42.5934545,38.1004121 43.0855758,37.8205091 43.5752727,37.5453576 C43.3255758,38.0485333 43.0715152,38.5547152 42.8193939,39.0482424 C42.3035152,40.0575515 41.8055758,40.9962182 41.3789091,41.7404606 C41.1655758,42.1131152 40.9789091,42.4214788 40.8237576,42.6582788 C40.7461818,42.7761939 40.6826667,42.8672485 40.6327273,42.9344 C40.5905455,42.9906424 40.5682424,43.0168242 40.5633939,43.0220606 L40.5633939,43.0220606 L40.5629091,43.0230303 L40.5638788,43.0219152 C39.9592727,43.6579879 38.953697,43.6837333 38.3175758,43.0794182 C37.6819394,42.475103 37.6557576,41.4695273 38.2603636,40.8334545 L38.2593939,40.8345212 L38.2598788,40.8337455 Z M36.854303,39.4976485 C37.7197576,38.5868606 42.0683636,36.139103 45.0482424,34.5150545 C45.1796364,34.4435394 45.3081212,34.3736727 45.433697,34.3056 C45.7614545,34.1276606 46.0683636,33.9619879 46.3471515,33.8121697 C46.4547879,33.7541818 46.5585455,33.6985212 46.6574545,33.6454788 C47.0661818,33.4265697 47.510303,33.8485818 47.3124848,34.2676364 C47.2644848,34.3692121 47.2140606,34.4755879 47.161697,34.5863758 C47.0264242,34.8722909 46.8766061,35.187297 46.7156364,35.5238303 C46.6540606,35.6526061 46.5910303,35.7845333 46.5265455,35.9191758 C45.0569697,38.9787152 42.8349091,43.4468848 41.9699394,44.3576727 C40.6278788,45.7703273 38.3946667,45.8274909 36.9818182,44.4854303 C35.5694545,43.1433697 35.5122424,40.9102545 36.854303,39.4976485 Z" id="形状" fill="#FFFFFF"></path>
                </g>
            </g>
        </g>
    </g>
</svg>