<?xml version="1.0" encoding="UTF-8"?>
<svg width="81px" height="81px" viewBox="0 0 81 81" version="1.1" xmlns="http://www.w3.org/2000/svg" xmlns:xlink="http://www.w3.org/1999/xlink">
    <title>texing_icon_you</title>
    <defs>
        <linearGradient x1="64.8279636%" y1="63.7365099%" x2="23.7801281%" y2="38.1392183%" id="linearGradient-1">
            <stop stop-color="#50BE97" offset="0%"></stop>
            <stop stop-color="#31BC7F" offset="100%"></stop>
        </linearGradient>
    </defs>
    <g id="定稿" stroke="none" stroke-width="1" fill="none" fill-rule="evenodd">
        <g id="MPX-2.5d-1920" transform="translate(-920.000000, -850.000000)">
            <g id="特性" transform="translate(520.937667, 750.488763)">
                <g id="编组-17" transform="translate(300.000000, 60.000000)">
                    <g id="texing_icon_you" transform="translate(100.000000, 40.000000)">
                        <circle id="椭圆形" fill="url(#linearGradient-1)" fill-rule="nonzero" cx="40" cy="40" r="40"></circle>
                        <path d="M35.7110303,28.4610909 C37.2242424,26.3927273 38.8780606,24.7563636 39.7575758,23.9418182 C40.6370909,24.7563636 42.2909091,26.3927273 43.8041212,28.4610909 C45.5660606,30.8693333 47.030303,33.7192727 47.030303,36.4644848 L47.030303,36.5047273 L47.030303,36.5449697 L47.030303,36.5852121 L47.030303,36.6254545 L47.030303,36.665697 L47.030303,36.7054545 L47.030303,36.745697 L47.030303,36.7854545 L47.030303,36.8252121 L47.030303,36.8649697 L47.030303,36.9042424 L47.030303,36.944 L47.030303,36.9832727 L47.030303,37.0225455 L47.030303,37.0618182 L47.030303,37.1006061 L47.030303,37.1398788 L47.030303,37.1786667 L47.030303,37.2174545 L47.030303,37.2562424 L47.030303,37.2950303 L47.030303,37.3338182 L47.030303,37.3721212 L47.030303,37.4104242 L47.030303,37.4487273 L47.030303,37.4870303 L47.030303,37.5253333 L47.030303,37.5636364 L47.030303,37.6014545 L47.030303,37.6392727 L47.030303,37.6770909 L47.030303,37.7149091 L47.030303,37.7522424 L47.030303,37.7900606 L47.030303,37.8273939 L47.030303,37.8647273 L47.030303,37.9020606 L47.030303,37.9393939 L47.030303,37.9762424 L47.030303,38.0130909 L47.030303,38.0504242 L47.030303,38.0872727 L47.030303,38.1236364 L47.030303,38.1566061 L47.030303,38.1604848 L47.030303,38.1968485 L47.030303,38.233697 L47.030303,38.2700606 L47.030303,38.3064242 L47.030303,38.342303 L47.030303,38.3786667 L47.030303,38.4145455 L47.030303,38.4504242 L47.030303,38.486303 L47.030303,38.5221818 L47.030303,38.5580606 L47.030303,38.5934545 L47.030303,38.6293333 L47.030303,38.6647273 L47.030303,38.7001212 L47.030303,38.7350303 L47.030303,38.7704242 L47.030303,38.8053333 L47.030303,38.8407273 L47.030303,38.8756364 L47.030303,38.9100606 L47.030303,38.9449697 L47.030303,38.9798788 L47.030303,39.014303 L47.030303,39.0487273 L47.030303,39.0831515 L47.030303,39.1175758 L47.030303,39.1515152 L47.030303,39.1859394 L47.030303,39.2198788 L47.030303,39.2538182 L47.030303,39.2877576 L47.030303,39.321697 L47.030303,39.3551515 L47.030303,39.3890909 L47.030303,39.4225455 L47.030303,39.456 L47.030303,39.4894545 L47.030303,39.5224242 L47.030303,39.5558788 L47.030303,39.5888485 L47.030303,39.6218182 L47.030303,39.6547879 L47.030303,39.6877576 L47.030303,39.7207273 L47.030303,39.7532121 L47.030303,39.785697 L47.030303,39.8181818 L47.030303,39.8506667 L47.030303,39.8831515 L47.030303,39.9151515 L47.030303,39.9476364 L47.030303,39.9796364 L47.030303,40.0116364 L47.030303,40.0436364 L47.030303,40.0751515 L47.030303,40.1071515 L47.030303,40.1386667 L47.030303,40.1701818 L47.030303,40.201697 L47.030303,40.2332121 L47.030303,40.2647273 L47.030303,40.2957576 L47.030303,40.3267879 L47.030303,40.3578182 L47.030303,40.3888485 L47.030303,40.4198788 L47.030303,40.4509091 L47.030303,40.4814545 L47.030303,40.512 L47.030303,40.5425455 L47.030303,40.5730909 L47.030303,40.6036364 L47.030303,40.633697 L47.030303,40.6642424 L47.030303,40.694303 L47.030303,40.7243636 L47.030303,40.7544242 L47.030303,40.784 L47.030303,40.8140606 L47.030303,40.8436364 L47.030303,40.8732121 L47.030303,40.9027879 L47.030303,40.9323636 L47.030303,40.9614545 L47.030303,40.9910303 L47.030303,41.0201212 L47.030303,41.0492121 L47.030303,41.078303 L47.030303,41.1073939 L47.030303,41.136 L47.030303,41.1650909 L47.030303,41.193697 L47.030303,41.222303 L47.030303,41.2509091 L47.030303,41.2795152 L47.030303,41.3076364 L47.030303,41.3357576 L47.030303,41.3643636 L47.030303,41.3924848 L47.030303,41.4206061 L47.030303,41.4482424 L47.030303,41.4763636 L47.030303,41.504 L47.030303,41.5316364 L47.030303,41.5592727 L47.030303,41.5869091 L47.030303,41.6145455 L47.030303,41.641697 L47.030303,41.6688485 L47.030303,41.696 L47.030303,41.7231515 L47.030303,41.750303 L47.030303,41.7774545 L47.030303,41.8041212 L47.030303,41.8307879 L47.030303,41.8579394 L47.030303,41.8841212 L47.030303,41.9107879 L47.030303,41.9374545 L47.030303,41.9636364 L47.030303,41.9898182 L47.030303,42.0164848 L47.030303,42.0421818 L47.030303,42.0683636 L47.030303,42.0945455 L47.030303,42.1202424 L47.030303,42.1459394 L47.030303,42.1716364 L47.030303,42.1973333 L47.030303,42.2230303 L47.030303,42.2487273 L47.030303,42.2739394 L47.030303,42.2991515 L47.030303,42.3243636 L47.030303,42.3495758 L47.030303,42.3747879 L47.030303,42.3995152 L47.030303,42.4247273 L47.030303,42.4494545 L47.030303,42.4741818 L47.030303,42.4989091 L47.030303,42.5231515 L47.030303,42.5478788 L47.030303,42.5721212 L47.030303,42.5963636 L47.030303,42.6206061 L47.030303,42.6448485 L47.030303,42.6690909 L47.030303,42.6928485 L47.030303,42.7170909 L47.030303,42.7408485 L47.030303,42.7646061 L47.030303,42.7883636 L47.030303,42.8116364 L47.030303,42.8353939 L47.030303,42.8586667 L47.030303,42.8819394 L47.030303,42.9052121 L47.030303,42.9284848 L47.030303,42.9517576 L47.030303,42.9745455 L47.030303,42.9978182 L47.030303,43.0206061 L47.030303,43.0433939 L47.030303,43.0661818 L47.030303,43.0884848 L47.030303,43.1112727 L47.030303,43.1335758 L47.030303,43.1558788 L47.030303,43.1781818 L47.030303,43.2004848 L47.030303,43.2227879 L47.030303,43.2446061 L47.030303,43.2664242 L47.030303,43.2887273 L47.030303,43.3105455 L47.030303,43.3318788 L47.030303,43.353697 L47.030303,43.3755152 L47.030303,43.3968485 L47.030303,43.4181818 L47.030303,43.4395152 L47.030303,43.4608485 L47.030303,43.4821818 L47.030303,43.5030303 L47.030303,43.5238788 L47.030303,43.5452121 L47.030303,43.5660606 L47.030303,43.5864242 L47.030303,43.6072727 L47.030303,43.6281212 L47.030303,43.6484848 L47.030303,43.6688485 L47.030303,43.6892121 L47.030303,43.7095758 L47.030303,43.7299394 L47.030303,43.7498182 L47.030303,43.7701818 L47.030303,43.7900606 L47.030303,43.8099394 L47.030303,43.8298182 L47.030303,43.8492121 L47.030303,43.8690909 L47.030303,43.8884848 L47.030303,43.9083636 L47.030303,43.9277576 L47.030303,43.9471515 L47.030303,43.9660606 L47.030303,43.9854545 L47.030303,44.0043636 L47.030303,44.0232727 L47.030303,44.0426667 L47.030303,44.0610909 L47.030303,44.08 L47.030303,44.0989091 L47.030303,44.1173333 L47.030303,44.1357576 L47.030303,44.1541818 L47.030303,44.1726061 L47.030303,44.1910303 L47.030303,44.2094545 L47.030303,44.2273939 L47.030303,44.2458182 L47.030303,44.2637576 L47.030303,44.281697 L47.030303,44.2991515 L47.030303,44.3170909 L47.030303,44.3345455 L47.030303,44.3524848 L47.030303,44.3699394 L47.030303,44.3873939 L47.030303,44.4048485 L47.030303,44.4218182 L47.030303,44.4392727 L47.030303,44.4562424 L47.030303,44.4732121 L47.030303,44.4901818 L47.030303,44.5071515 L47.030303,44.5241212 L47.030303,44.5410909 L47.030303,44.5575758 L47.030303,44.5740606 L47.030303,44.5905455 L47.030303,44.6070303 L47.030303,44.6235152 L47.030303,44.6395152 L47.030303,44.656 L47.030303,44.672 L47.030303,44.688 L47.030303,44.704 L47.030303,44.72 L47.030303,44.7355152 L47.030303,44.7515152 L47.030303,44.7670303 L47.030303,44.7825455 L47.030303,44.7980606 L47.030303,44.8135758 L47.030303,44.8290909 L47.030303,44.8441212 L47.030303,44.8596364 L47.030303,44.8746667 L47.030303,44.889697 L47.030303,44.9047273 L47.030303,44.9192727 L47.030303,44.934303 L47.030303,44.9488485 L47.030303,44.9633939 L47.030303,44.9784242 L47.030303,44.9924848 L47.030303,45.0070303 L47.030303,45.0215758 L47.030303,45.0356364 L47.030303,45.049697 L47.030303,45.0642424 L47.030303,45.078303 L47.030303,45.0918788 L47.030303,45.1059394 L47.030303,45.1195152 L47.030303,45.1335758 L47.030303,45.1471515 L47.030303,45.1607273 L47.030303,45.174303 L47.030303,45.1873939 L47.030303,45.2009697 L47.030303,45.2140606 L47.030303,45.2276364 L47.030303,45.2407273 L47.030303,45.2538182 L47.030303,45.2664242 L47.030303,45.2795152 L47.030303,45.2921212 L47.030303,45.3052121 L47.030303,45.3178182 L47.030303,45.3304242 L47.030303,45.3425455 L47.030303,45.3551515 L47.030303,45.3677576 L47.030303,45.3798788 L47.030303,45.392 L47.030303,45.4041212 L47.030303,45.4162424 L47.030303,45.4283636 L47.030303,45.4293333 L32.4848485,45.4293333 L32.4848485,45.4283636 L32.4848485,45.4162424 L32.4848485,45.4041212 L32.4848485,45.392 L32.4848485,45.3798788 L32.4848485,45.3677576 L32.4848485,45.3551515 L32.4848485,45.3425455 L32.4848485,45.3304242 L32.4848485,45.3178182 L32.4848485,45.3052121 L32.4848485,45.2921212 L32.4848485,45.2795152 L32.4848485,45.2664242 L32.4848485,45.2538182 L32.4848485,45.2407273 L32.4848485,45.2276364 L32.4848485,45.2140606 L32.4848485,45.2009697 L32.4848485,45.1873939 L32.4848485,45.174303 L32.4848485,45.1607273 L32.4848485,45.1471515 L32.4848485,45.1335758 L32.4848485,45.1195152 L32.4848485,45.1059394 L32.4848485,45.0918788 L32.4848485,45.078303 L32.4848485,45.0642424 L32.4848485,45.049697 L32.4848485,45.0356364 L32.4848485,45.0215758 L32.4848485,45.0070303 L32.4848485,44.9924848 L32.4848485,44.9784242 L32.4848485,44.9633939 L32.4848485,44.9488485 L32.4848485,44.934303 L32.4848485,44.9192727 L32.4848485,44.9047273 L32.4848485,44.889697 L32.4848485,44.8746667 L32.4848485,44.8596364 L32.4848485,44.8441212 L32.4848485,44.8290909 L32.4848485,44.8135758 L32.4848485,44.7980606 L32.4848485,44.7825455 L32.4848485,44.7670303 L32.4848485,44.7515152 L32.4848485,44.7355152 L32.4848485,44.72 L32.4848485,44.704 L32.4848485,44.688 L32.4848485,44.672 L32.4848485,44.656 L32.4848485,44.6395152 L32.4848485,44.6235152 L32.4848485,44.6070303 L32.4848485,44.5905455 L32.4848485,44.5740606 L32.4848485,44.5575758 L32.4848485,44.5410909 L32.4848485,44.5241212 L32.4848485,44.5071515 L32.4848485,44.4901818 L32.4848485,44.4732121 L32.4848485,44.4562424 L32.4848485,44.4392727 L32.4848485,44.4218182 L32.4848485,44.4048485 L32.4848485,44.3873939 L32.4848485,44.3699394 L32.4848485,44.3524848 L32.4848485,44.3345455 L32.4848485,44.3170909 L32.4848485,44.2991515 L32.4848485,44.281697 L32.4848485,44.2637576 L32.4848485,44.2458182 L32.4848485,44.2273939 L32.4848485,44.2094545 L32.4848485,44.1910303 L32.4848485,44.1726061 L32.4848485,44.1541818 L32.4848485,44.1357576 L32.4848485,44.1173333 L32.4848485,44.0989091 L32.4848485,44.08 L32.4848485,44.0610909 L32.4848485,44.0426667 L32.4848485,44.0232727 L32.4848485,44.0043636 L32.4848485,43.9854545 L32.4848485,43.9660606 L32.4848485,43.9471515 L32.4848485,43.9277576 L32.4848485,43.9083636 L32.4848485,43.8884848 L32.4848485,43.8690909 L32.4848485,43.8492121 L32.4848485,43.8298182 L32.4848485,43.8099394 L32.4848485,43.7900606 L32.4848485,43.7701818 L32.4848485,43.7498182 L32.4848485,43.7299394 L32.4848485,43.7095758 L32.4848485,43.6892121 L32.4848485,43.6688485 L32.4848485,43.6484848 L32.4848485,43.6281212 L32.4848485,43.6072727 L32.4848485,43.5864242 L32.4848485,43.5660606 L32.4848485,43.5452121 L32.4848485,43.5238788 L32.4848485,43.5030303 L32.4848485,43.4821818 L32.4848485,43.4608485 L32.4848485,43.4395152 L32.4848485,43.4181818 L32.4848485,43.3968485 L32.4848485,43.3755152 L32.4848485,43.353697 L32.4848485,43.3318788 L32.4848485,43.3105455 L32.4848485,43.2887273 L32.4848485,43.2664242 L32.4848485,43.2446061 L32.4848485,43.2227879 L32.4848485,43.2004848 L32.4848485,43.1781818 L32.4848485,43.1558788 L32.4848485,43.1335758 L32.4848485,43.1112727 L32.4848485,43.0884848 L32.4848485,43.0661818 L32.4848485,43.0433939 L32.4848485,43.0206061 L32.4848485,42.9978182 L32.4848485,42.9745455 L32.4848485,42.9517576 L32.4848485,42.9284848 L32.4848485,42.9052121 L32.4848485,42.8819394 L32.4848485,42.8586667 L32.4848485,42.8353939 L32.4848485,42.8116364 L32.4848485,42.7883636 L32.4848485,42.7646061 L32.4848485,42.7408485 L32.4848485,42.7170909 L32.4848485,42.6928485 L32.4848485,42.6690909 L32.4848485,42.6448485 L32.4848485,42.6206061 L32.4848485,42.5963636 L32.4848485,42.5721212 L32.4848485,42.5478788 L32.4848485,42.5231515 L32.4848485,42.4989091 L32.4848485,42.4741818 L32.4848485,42.4494545 L32.4848485,42.4247273 L32.4848485,42.3995152 L32.4848485,42.3747879 L32.4848485,42.3495758 L32.4848485,42.3243636 L32.4848485,42.2991515 L32.4848485,42.2739394 L32.4848485,42.2487273 L32.4848485,42.2230303 L32.4848485,42.1973333 L32.4848485,42.1716364 L32.4848485,42.1459394 L32.4848485,42.1202424 L32.4848485,42.0945455 L32.4848485,42.0683636 L32.4848485,42.0421818 L32.4848485,42.0164848 L32.4848485,41.9898182 L32.4848485,41.9636364 L32.4848485,41.9374545 L32.4848485,41.9107879 L32.4848485,41.8841212 L32.4848485,41.8579394 L32.4848485,41.8307879 L32.4848485,41.8041212 L32.4848485,41.7774545 L32.4848485,41.750303 L32.4848485,41.7231515 L32.4848485,41.696 L32.4848485,41.6688485 L32.4848485,41.641697 L32.4848485,41.6145455 L32.4848485,41.5869091 L32.4848485,41.5592727 L32.4848485,41.5316364 L32.4848485,41.504 L32.4848485,41.4763636 L32.4848485,41.4482424 L32.4848485,41.4206061 L32.4848485,41.3924848 L32.4848485,41.3643636 L32.4848485,41.3357576 L32.4848485,41.3076364 L32.4848485,41.2795152 L32.4848485,41.2509091 L32.4848485,41.222303 L32.4848485,41.193697 L32.4848485,41.1650909 L32.4848485,41.136 L32.4848485,41.1073939 L32.4848485,41.078303 L32.4848485,41.0492121 L32.4848485,41.0201212 L32.4848485,40.9910303 L32.4848485,40.9614545 L32.4848485,40.9323636 L32.4848485,40.9027879 L32.4848485,40.8732121 L32.4848485,40.8436364 L32.4848485,40.8140606 L32.4848485,40.784 L32.4848485,40.7544242 L32.4848485,40.7243636 L32.4848485,40.694303 L32.4848485,40.6642424 L32.4848485,40.633697 L32.4848485,40.6036364 L32.4848485,40.5730909 L32.4848485,40.5425455 L32.4848485,40.512 L32.4848485,40.4814545 L32.4848485,40.4509091 L32.4848485,40.4198788 L32.4848485,40.3888485 L32.4848485,40.3578182 L32.4848485,40.3267879 L32.4848485,40.2957576 L32.4848485,40.2647273 L32.4848485,40.2332121 L32.4848485,40.201697 L32.4848485,40.1701818 L32.4848485,40.1386667 L32.4848485,40.1071515 L32.4848485,40.0751515 L32.4848485,40.0436364 L32.4848485,40.0116364 L32.4848485,39.9796364 L32.4848485,39.9476364 L32.4848485,39.9151515 L32.4848485,39.8831515 L32.4848485,39.8506667 L32.4848485,39.8181818 L32.4848485,39.785697 L32.4848485,39.7532121 L32.4848485,39.7207273 L32.4848485,39.6877576 L32.4848485,39.6547879 L32.4848485,39.6218182 L32.4848485,39.5888485 L32.4848485,39.5558788 L32.4848485,39.5224242 L32.4848485,39.4894545 L32.4848485,39.456 L32.4848485,39.4225455 L32.4848485,39.3890909 L32.4848485,39.3551515 L32.4848485,39.321697 L32.4848485,39.2877576 L32.4848485,39.2538182 L32.4848485,39.2198788 L32.4848485,39.1859394 L32.4848485,39.1515152 L32.4848485,39.1175758 L32.4848485,39.0831515 L32.4848485,39.0487273 L32.4848485,39.014303 L32.4848485,38.9798788 L32.4848485,38.9449697 L32.4848485,38.9100606 L32.4848485,38.8756364 L32.4848485,38.8407273 L32.4848485,38.8053333 L32.4848485,38.7704242 L32.4848485,38.7350303 L32.4848485,38.7001212 L32.4848485,38.6647273 L32.4848485,38.6293333 L32.4848485,38.5934545 L32.4848485,38.5580606 L32.4848485,38.5221818 L32.4848485,38.486303 L32.4848485,38.4504242 L32.4848485,38.4145455 L32.4848485,38.3786667 L32.4848485,38.342303 L32.4848485,38.3064242 L32.4848485,38.2700606 L32.4848485,38.233697 L32.4848485,38.1968485 L32.4848485,38.1604848 L32.4848485,38.1566061 L32.4848485,38.1236364 L32.4848485,38.0872727 L32.4848485,38.0504242 L32.4848485,38.0130909 L32.4848485,37.9762424 L32.4848485,37.9393939 L32.4848485,37.9020606 L32.4848485,37.8647273 L32.4848485,37.8273939 L32.4848485,37.7900606 L32.4848485,37.7522424 L32.4848485,37.7149091 L32.4848485,37.6770909 L32.4848485,37.6392727 L32.4848485,37.6014545 L32.4848485,37.5636364 L32.4848485,37.5253333 L32.4848485,37.4870303 L32.4848485,37.4487273 L32.4848485,37.4104242 L32.4848485,37.3721212 L32.4848485,37.3338182 L32.4848485,37.2950303 L32.4848485,37.2562424 L32.4848485,37.2174545 L32.4848485,37.1786667 L32.4848485,37.1398788 L32.4848485,37.1006061 L32.4848485,37.0618182 L32.4848485,37.0225455 L32.4848485,36.9832727 L32.4848485,36.944 L32.4848485,36.9042424 L32.4848485,36.8649697 L32.4848485,36.8252121 L32.4848485,36.7854545 L32.4848485,36.745697 L32.4848485,36.7054545 L32.4848485,36.665697 L32.4848485,36.6254545 L32.4848485,36.5852121 L32.4848485,36.5449697 L32.4848485,36.5047273 L32.4848485,36.4644848 C32.4848485,33.7192727 33.9490909,30.8693333 35.7110303,28.4610909 Z M30.5454545,37.7027879 L30.5454545,37.6770909 L30.5454545,37.6392727 L30.5454545,37.6014545 L30.5454545,37.5636364 L30.5454545,37.5253333 L30.5454545,37.4870303 L30.5454545,37.4487273 L30.5454545,37.4104242 L30.5454545,37.3721212 L30.5454545,37.3338182 L30.5454545,37.2950303 L30.5454545,37.2562424 L30.5454545,37.2174545 L30.5454545,37.1786667 L30.5454545,37.1398788 L30.5454545,37.1006061 L30.5454545,37.0618182 L30.5454545,37.0225455 L30.5454545,36.9832727 L30.5454545,36.944 L30.5454545,36.9042424 L30.5454545,36.8649697 L30.5454545,36.8252121 L30.5454545,36.7854545 L30.5454545,36.745697 L30.5454545,36.7054545 L30.5454545,36.665697 L30.5454545,36.6254545 L30.5454545,36.5852121 L30.5454545,36.5449697 L30.5454545,36.5047273 L30.5454545,36.4644848 C30.5454545,33.0928485 32.3093333,29.8264242 34.1459394,27.3158788 C36.0019394,24.7791515 38.0421818,22.8673939 38.809697,22.182303 C39.3532121,21.6969697 40.1619394,21.6969697 40.7054545,22.182303 C41.4729697,22.8673939 43.5132121,24.7791515 45.3692121,27.3158788 C47.2058182,29.8264242 48.969697,33.0928485 48.969697,36.4644848 L48.969697,36.5047273 L48.969697,36.5449697 L48.969697,36.5852121 L48.969697,36.6254545 L48.969697,36.665697 L48.969697,36.7054545 L48.969697,36.745697 L48.969697,36.7854545 L48.969697,36.8252121 L48.969697,36.8649697 L48.969697,36.9042424 L48.969697,36.944 L48.969697,36.9832727 L48.969697,37.0225455 L48.969697,37.0618182 L48.969697,37.1006061 L48.969697,37.1398788 L48.969697,37.1786667 L48.969697,37.2174545 L48.969697,37.2562424 L48.969697,37.2950303 L48.969697,37.3338182 L48.969697,37.3721212 L48.969697,37.4104242 L48.969697,37.4487273 L48.969697,37.4870303 L48.969697,37.5253333 L48.969697,37.5636364 L48.969697,37.6014545 L48.969697,37.6392727 L48.969697,37.6770909 L48.969697,37.7027879 L54.0901818,41.9694545 C54.5323636,42.3379394 54.7878788,42.8838788 54.7878788,43.4593939 L54.7878788,45.4293333 C54.7878788,46.5008485 53.9195152,47.3687273 52.8484848,47.3687273 L48.969697,47.3687273 L48,47.3687273 L47.030303,47.3687273 L32.4848485,47.3687273 L31.5151515,47.3687273 L30.5454545,47.3687273 L26.6666667,47.3687273 C25.5956364,47.3687273 24.7272727,46.5008485 24.7272727,45.4293333 L24.7272727,43.4593939 C24.7272727,42.8838788 24.9827879,42.3379394 25.4249697,41.9694545 L30.5454545,37.7027879 Z M30.5454545,40.2273939 L26.6666667,43.4593939 L26.6666667,45.4293333 L30.5454545,45.4293333 L30.5454545,45.4283636 L30.5454545,45.4162424 L30.5454545,45.4041212 L30.5454545,45.392 L30.5454545,45.3798788 L30.5454545,45.3677576 L30.5454545,45.3551515 L30.5454545,45.3425455 L30.5454545,45.3304242 L30.5454545,45.3178182 L30.5454545,45.3052121 L30.5454545,45.2921212 L30.5454545,45.2795152 L30.5454545,45.2664242 L30.5454545,45.2538182 L30.5454545,45.2407273 L30.5454545,45.2276364 L30.5454545,45.2140606 L30.5454545,45.2009697 L30.5454545,45.1873939 L30.5454545,45.174303 L30.5454545,45.1607273 L30.5454545,45.1471515 L30.5454545,45.1335758 L30.5454545,45.1195152 L30.5454545,45.1059394 L30.5454545,45.0918788 L30.5454545,45.078303 L30.5454545,45.0642424 L30.5454545,45.049697 L30.5454545,45.0356364 L30.5454545,45.0215758 L30.5454545,45.0070303 L30.5454545,44.9924848 L30.5454545,44.9784242 L30.5454545,44.9633939 L30.5454545,44.9488485 L30.5454545,44.934303 L30.5454545,44.9192727 L30.5454545,44.9047273 L30.5454545,44.889697 L30.5454545,44.8746667 L30.5454545,44.8596364 L30.5454545,44.8441212 L30.5454545,44.8290909 L30.5454545,44.8135758 L30.5454545,44.7980606 L30.5454545,44.7825455 L30.5454545,44.7670303 L30.5454545,44.7515152 L30.5454545,44.7355152 L30.5454545,44.72 L30.5454545,44.704 L30.5454545,44.688 L30.5454545,44.672 L30.5454545,44.656 L30.5454545,44.6395152 L30.5454545,44.6235152 L30.5454545,44.6070303 L30.5454545,44.5905455 L30.5454545,44.5740606 L30.5454545,44.5575758 L30.5454545,44.5410909 L30.5454545,44.5241212 L30.5454545,44.5071515 L30.5454545,44.4901818 L30.5454545,44.4732121 L30.5454545,44.4562424 L30.5454545,44.4392727 L30.5454545,44.4218182 L30.5454545,44.4048485 L30.5454545,44.3873939 L30.5454545,44.3699394 L30.5454545,44.3524848 L30.5454545,44.3345455 L30.5454545,44.3170909 L30.5454545,44.2991515 L30.5454545,44.281697 L30.5454545,44.2637576 L30.5454545,44.2458182 L30.5454545,44.2273939 L30.5454545,44.2094545 L30.5454545,44.1910303 L30.5454545,44.1726061 L30.5454545,44.1541818 L30.5454545,44.1357576 L30.5454545,44.1173333 L30.5454545,44.0989091 L30.5454545,44.08 L30.5454545,44.0610909 L30.5454545,44.0426667 L30.5454545,44.0232727 L30.5454545,44.0043636 L30.5454545,43.9854545 L30.5454545,43.9660606 L30.5454545,43.9471515 L30.5454545,43.9277576 L30.5454545,43.9083636 L30.5454545,43.8884848 L30.5454545,43.8690909 L30.5454545,43.8492121 L30.5454545,43.8298182 L30.5454545,43.8099394 L30.5454545,43.7900606 L30.5454545,43.7701818 L30.5454545,43.7498182 L30.5454545,43.7299394 L30.5454545,43.7095758 L30.5454545,43.6892121 L30.5454545,43.6688485 L30.5454545,43.6484848 L30.5454545,43.6281212 L30.5454545,43.6072727 L30.5454545,43.5864242 L30.5454545,43.5660606 L30.5454545,43.5452121 L30.5454545,43.5238788 L30.5454545,43.5030303 L30.5454545,43.4821818 L30.5454545,43.4608485 L30.5454545,43.4395152 L30.5454545,43.4181818 L30.5454545,43.3968485 L30.5454545,43.3755152 L30.5454545,43.353697 L30.5454545,43.3318788 L30.5454545,43.3105455 L30.5454545,43.2887273 L30.5454545,43.2664242 L30.5454545,43.2446061 L30.5454545,43.2227879 L30.5454545,43.2004848 L30.5454545,43.1781818 L30.5454545,43.1558788 L30.5454545,43.1335758 L30.5454545,43.1112727 L30.5454545,43.0884848 L30.5454545,43.0661818 L30.5454545,43.0433939 L30.5454545,43.0206061 L30.5454545,42.9978182 L30.5454545,42.9745455 L30.5454545,42.9517576 L30.5454545,42.9284848 L30.5454545,42.9052121 L30.5454545,42.8819394 L30.5454545,42.8586667 L30.5454545,42.8353939 L30.5454545,42.8116364 L30.5454545,42.7883636 L30.5454545,42.7646061 L30.5454545,42.7408485 L30.5454545,42.7170909 L30.5454545,42.6928485 L30.5454545,42.6690909 L30.5454545,42.6448485 L30.5454545,42.6206061 L30.5454545,42.5963636 L30.5454545,42.5721212 L30.5454545,42.5478788 L30.5454545,42.5231515 L30.5454545,42.4989091 L30.5454545,42.4741818 L30.5454545,42.4494545 L30.5454545,42.4247273 L30.5454545,42.3995152 L30.5454545,42.3747879 L30.5454545,42.3495758 L30.5454545,42.3243636 L30.5454545,42.2991515 L30.5454545,42.2739394 L30.5454545,42.2487273 L30.5454545,42.2230303 L30.5454545,42.1973333 L30.5454545,42.1716364 L30.5454545,42.1459394 L30.5454545,42.1202424 L30.5454545,42.0945455 L30.5454545,42.0683636 L30.5454545,42.0421818 L30.5454545,42.0164848 L30.5454545,41.9898182 L30.5454545,41.9636364 L30.5454545,41.9374545 L30.5454545,41.9107879 L30.5454545,41.8841212 L30.5454545,41.8579394 L30.5454545,41.8307879 L30.5454545,41.8041212 L30.5454545,41.7774545 L30.5454545,41.750303 L30.5454545,41.7231515 L30.5454545,41.696 L30.5454545,41.6688485 L30.5454545,41.641697 L30.5454545,41.6145455 L30.5454545,41.5869091 L30.5454545,41.5592727 L30.5454545,41.5316364 L30.5454545,41.504 L30.5454545,41.4763636 L30.5454545,41.4482424 L30.5454545,41.4206061 L30.5454545,41.3924848 L30.5454545,41.3643636 L30.5454545,41.3357576 L30.5454545,41.3076364 L30.5454545,41.2795152 L30.5454545,41.2509091 L30.5454545,41.222303 L30.5454545,41.193697 L30.5454545,41.1650909 L30.5454545,41.136 L30.5454545,41.1073939 L30.5454545,41.078303 L30.5454545,41.0492121 L30.5454545,41.0201212 L30.5454545,40.9910303 L30.5454545,40.9614545 L30.5454545,40.9323636 L30.5454545,40.9027879 L30.5454545,40.8732121 L30.5454545,40.8436364 L30.5454545,40.8140606 L30.5454545,40.784 L30.5454545,40.7544242 L30.5454545,40.7243636 L30.5454545,40.694303 L30.5454545,40.6642424 L30.5454545,40.633697 L30.5454545,40.6036364 L30.5454545,40.5730909 L30.5454545,40.5425455 L30.5454545,40.512 L30.5454545,40.4814545 L30.5454545,40.4509091 L30.5454545,40.4198788 L30.5454545,40.3888485 L30.5454545,40.3578182 L30.5454545,40.3267879 L30.5454545,40.2957576 L30.5454545,40.2647273 L30.5454545,40.2332121 L30.5454545,40.2273939 Z M48.969697,45.4293333 L52.8484848,45.4293333 L52.8484848,43.4593939 L48.969697,40.2273939 L48.969697,40.2332121 L48.969697,40.2647273 L48.969697,40.2957576 L48.969697,40.3267879 L48.969697,40.3578182 L48.969697,40.3888485 L48.969697,40.4198788 L48.969697,40.4509091 L48.969697,40.4814545 L48.969697,40.512 L48.969697,40.5425455 L48.969697,40.5730909 L48.969697,40.6036364 L48.969697,40.633697 L48.969697,40.6642424 L48.969697,40.694303 L48.969697,40.7243636 L48.969697,40.7544242 L48.969697,40.784 L48.969697,40.8140606 L48.969697,40.8436364 L48.969697,40.8732121 L48.969697,40.9027879 L48.969697,40.9323636 L48.969697,40.9614545 L48.969697,40.9910303 L48.969697,41.0201212 L48.969697,41.0492121 L48.969697,41.078303 L48.969697,41.1073939 L48.969697,41.136 L48.969697,41.1650909 L48.969697,41.193697 L48.969697,41.222303 L48.969697,41.2509091 L48.969697,41.2795152 L48.969697,41.3076364 L48.969697,41.3357576 L48.969697,41.3643636 L48.969697,41.3924848 L48.969697,41.4206061 L48.969697,41.4482424 L48.969697,41.4763636 L48.969697,41.504 L48.969697,41.5316364 L48.969697,41.5592727 L48.969697,41.5869091 L48.969697,41.6145455 L48.969697,41.641697 L48.969697,41.6688485 L48.969697,41.696 L48.969697,41.7231515 L48.969697,41.750303 L48.969697,41.7774545 L48.969697,41.8041212 L48.969697,41.8307879 L48.969697,41.8579394 L48.969697,41.8841212 L48.969697,41.9107879 L48.969697,41.9374545 L48.969697,41.9636364 L48.969697,41.9898182 L48.969697,42.0164848 L48.969697,42.0421818 L48.969697,42.0683636 L48.969697,42.0945455 L48.969697,42.1202424 L48.969697,42.1459394 L48.969697,42.1716364 L48.969697,42.1973333 L48.969697,42.2230303 L48.969697,42.2487273 L48.969697,42.2739394 L48.969697,42.2991515 L48.969697,42.3243636 L48.969697,42.3495758 L48.969697,42.3747879 L48.969697,42.3995152 L48.969697,42.4247273 L48.969697,42.4494545 L48.969697,42.4741818 L48.969697,42.4989091 L48.969697,42.5231515 L48.969697,42.5478788 L48.969697,42.5721212 L48.969697,42.5963636 L48.969697,42.6206061 L48.969697,42.6448485 L48.969697,42.6690909 L48.969697,42.6928485 L48.969697,42.7170909 L48.969697,42.7408485 L48.969697,42.7646061 L48.969697,42.7883636 L48.969697,42.8116364 L48.969697,42.8353939 L48.969697,42.8586667 L48.969697,42.8819394 L48.969697,42.9052121 L48.969697,42.9284848 L48.969697,42.9517576 L48.969697,42.9745455 L48.969697,42.9978182 L48.969697,43.0206061 L48.969697,43.0433939 L48.969697,43.0661818 L48.969697,43.0884848 L48.969697,43.1112727 L48.969697,43.1335758 L48.969697,43.1558788 L48.969697,43.1781818 L48.969697,43.2004848 L48.969697,43.2227879 L48.969697,43.2446061 L48.969697,43.2664242 L48.969697,43.2887273 L48.969697,43.3105455 L48.969697,43.3318788 L48.969697,43.353697 L48.969697,43.3755152 L48.969697,43.3968485 L48.969697,43.4181818 L48.969697,43.4395152 L48.969697,43.4608485 L48.969697,43.4821818 L48.969697,43.5030303 L48.969697,43.5238788 L48.969697,43.5452121 L48.969697,43.5660606 L48.969697,43.5864242 L48.969697,43.6072727 L48.969697,43.6281212 L48.969697,43.6484848 L48.969697,43.6688485 L48.969697,43.6892121 L48.969697,43.7095758 L48.969697,43.7299394 L48.969697,43.7498182 L48.969697,43.7701818 L48.969697,43.7900606 L48.969697,43.8099394 L48.969697,43.8298182 L48.969697,43.8492121 L48.969697,43.8690909 L48.969697,43.8884848 L48.969697,43.9083636 L48.969697,43.9277576 L48.969697,43.9471515 L48.969697,43.9660606 L48.969697,43.9854545 L48.969697,44.0043636 L48.969697,44.0232727 L48.969697,44.0426667 L48.969697,44.0610909 L48.969697,44.08 L48.969697,44.0989091 L48.969697,44.1173333 L48.969697,44.1357576 L48.969697,44.1541818 L48.969697,44.1726061 L48.969697,44.1910303 L48.969697,44.2094545 L48.969697,44.2273939 L48.969697,44.2458182 L48.969697,44.2637576 L48.969697,44.281697 L48.969697,44.2991515 L48.969697,44.3170909 L48.969697,44.3345455 L48.969697,44.3524848 L48.969697,44.3699394 L48.969697,44.3873939 L48.969697,44.4048485 L48.969697,44.4218182 L48.969697,44.4392727 L48.969697,44.4562424 L48.969697,44.4732121 L48.969697,44.4901818 L48.969697,44.5071515 L48.969697,44.5241212 L48.969697,44.5410909 L48.969697,44.5575758 L48.969697,44.5740606 L48.969697,44.5905455 L48.969697,44.6070303 L48.969697,44.6235152 L48.969697,44.6395152 L48.969697,44.656 L48.969697,44.672 L48.969697,44.688 L48.969697,44.704 L48.969697,44.72 L48.969697,44.7355152 L48.969697,44.7515152 L48.969697,44.7670303 L48.969697,44.7825455 L48.969697,44.7980606 L48.969697,44.8135758 L48.969697,44.8290909 L48.969697,44.8441212 L48.969697,44.8596364 L48.969697,44.8746667 L48.969697,44.889697 L48.969697,44.9047273 L48.969697,44.9192727 L48.969697,44.934303 L48.969697,44.9488485 L48.969697,44.9633939 L48.969697,44.9784242 L48.969697,44.9924848 L48.969697,45.0070303 L48.969697,45.0215758 L48.969697,45.0356364 L48.969697,45.049697 L48.969697,45.0642424 L48.969697,45.078303 L48.969697,45.0918788 L48.969697,45.1059394 L48.969697,45.1195152 L48.969697,45.1335758 L48.969697,45.1471515 L48.969697,45.1607273 L48.969697,45.174303 L48.969697,45.1873939 L48.969697,45.2009697 L48.969697,45.2140606 L48.969697,45.2276364 L48.969697,45.2407273 L48.969697,45.2538182 L48.969697,45.2664242 L48.969697,45.2795152 L48.969697,45.2921212 L48.969697,45.3052121 L48.969697,45.3178182 L48.969697,45.3304242 L48.969697,45.3425455 L48.969697,45.3551515 L48.969697,45.3677576 L48.969697,45.3798788 L48.969697,45.392 L48.969697,45.4041212 L48.969697,45.4162424 L48.969697,45.4283636 L48.969697,45.4293333 Z M39.7575758,38.1566061 C40.8286061,38.1566061 41.6969697,37.2887273 41.6969697,36.2172121 C41.6969697,35.1461818 40.8286061,34.2778182 39.7575758,34.2778182 C38.6865455,34.2778182 37.8181818,35.1461818 37.8181818,36.2172121 C37.8181818,37.2887273 38.6865455,38.1566061 39.7575758,38.1566061 Z M39.7575758,40.096 C41.8996364,40.096 43.6363636,38.3597576 43.6363636,36.2172121 C43.6363636,34.0751515 41.8996364,32.3384242 39.7575758,32.3384242 C37.6155152,32.3384242 35.8787879,34.0751515 35.8787879,36.2172121 C35.8787879,38.3597576 37.6155152,40.096 39.7575758,40.096 Z M39.2727273,48.8232727 C38.7369697,48.8232727 38.3030303,49.257697 38.3030303,49.7929697 L38.3030303,56.096 C38.3030303,56.6317576 38.7369697,57.065697 39.2727273,57.065697 C39.8084848,57.065697 40.2424242,56.6317576 40.2424242,56.096 L40.2424242,49.7929697 C40.2424242,49.257697 39.8084848,48.8232727 39.2727273,48.8232727 Z M44.1212121,51.2475152 C44.1212121,50.7122424 44.5551515,50.2778182 45.0909091,50.2778182 C45.6266667,50.2778182 46.0606061,50.7122424 46.0606061,51.2475152 L46.0606061,54.6414545 C46.0606061,55.1772121 45.6266667,55.6111515 45.0909091,55.6111515 C44.5551515,55.6111515 44.1212121,55.1772121 44.1212121,54.6414545 L44.1212121,51.2475152 Z M33.4545455,50.2778182 C32.9187879,50.2778182 32.4848485,50.7122424 32.4848485,51.2475152 L32.4848485,54.6414545 C32.4848485,55.1772121 32.9187879,55.6111515 33.4545455,55.6111515 C33.990303,55.6111515 34.4242424,55.1772121 34.4242424,54.6414545 L34.4242424,51.2475152 C34.4242424,50.7122424 33.990303,50.2778182 33.4545455,50.2778182 Z" id="形状" fill="#FFFFFF"></path>
                    </g>
                </g>
            </g>
        </g>
    </g>
</svg>